<?xml version="1.0" encoding="utf-8"?>
<!-- Generator: Adobe Illustrator 14.0.0, SVG Export Plug-In . SVG Version: 6.00 Build 43363)  -->
<!DOCTYPE svg PUBLIC "-//W3C//DTD SVG 1.1//EN" "http://www.w3.org/Graphics/SVG/1.1/DTD/svg11.dtd">
<svg version="1.1" id="Layer_1" xmlns="http://www.w3.org/2000/svg" xmlns:xlink="http://www.w3.org/1999/xlink" x="0px" y="0px"
	 width="593.268px" height="325.337px" viewBox="0 0 593.268 325.337" enable-background="new 0 0 593.268 325.337"
	 xml:space="preserve">
<g>
	<g>
		<path fill="#A5B18E" d="M17.102,24.417v58.216h-6.762V24.417H4.263V17.36h18.622v7.057H17.102z"/>
		<path fill="#A5B18E" d="M38.465,82.633V53.917h-5.586v28.716h-6.86V17.36h6.86v29.598h5.586V17.36h6.763v65.273H38.465z"/>
		<path fill="#A5B18E" d="M50.321,82.633V17.36H66.1v6.763h-9.017v21.562h6.371v6.763h-6.371v23.423H66.1v6.763H50.321z"/>
		<path fill="#A5B18E" d="M85.6,24.123v21.855h6.763v6.665H85.6v29.99h-6.762V17.36h15.191v6.763H85.6z"/>
		<path fill="#A5B18E" d="M106.767,83.417c-5.292,0-9.409-4.508-9.409-11.173V17.36h6.762v55.472c0,2.254,0.98,3.43,2.744,3.43
			c1.862,0,2.842-1.176,2.842-3.43V17.36h6.469v54.884C116.176,78.909,112.059,83.417,106.767,83.417z"/>
		<path fill="#A5B18E" d="M131.854,24.417v58.216h-6.762V24.417h-6.077V17.36h18.622v7.057H131.854z"/>
		<path fill="#A5B18E" d="M149.886,83.417c-5.292,0-9.409-4.508-9.409-11.173V17.36h6.762v55.472c0,2.254,0.98,3.43,2.744,3.43
			c1.862,0,2.842-1.176,2.842-3.43V17.36h6.469v54.884C159.295,78.909,155.178,83.417,149.886,83.417z"/>
		<path fill="#A5B18E" d="M179.481,82.829c-2.254,0-3.333-3.92-3.333-8.037V57.543c0-1.96-0.98-3.332-2.548-3.332h-2.646v28.422
			h-6.86V17.36h9.898c3.822,0,8.625,1.96,8.625,10.291v15.975c0,3.43-1.274,5.88-3.823,7.449c2.548,1.568,4.019,3.92,4.019,7.448
			v15.779c0,2.94,0.294,4.999,1.078,6.665v1.862H179.481z M175.855,27.455c0-2.254-0.784-3.136-2.058-3.136h-2.842v23.228h2.548
			c1.47,0,2.352-1.078,2.352-3.43V27.455z"/>
		<path fill="#A5B18E" d="M187.417,82.633V17.36h15.779v6.763h-9.017v21.562h6.371v6.763h-6.371v23.423h9.017v6.763H187.417z"/>
	</g>
</g>
<g>
	<g>
		<path fill="#8F9AB0" d="M35.032,135.092v-21.733H23.836v21.733h-13.75V85.693h13.75v22.4h11.196v-22.4h13.553v49.399H35.032z"/>
		<path fill="#8F9AB0" d="M77.262,135.686c-10.607,0-19.446-3.412-19.446-8.456V93.555c0-4.969,8.839-8.456,19.446-8.456
			s19.446,3.486,19.446,8.456v33.675C96.708,132.274,87.869,135.686,77.262,135.686z M82.958,92.888
			c0-1.335-2.161-2.374-5.696-2.374c-3.732,0-5.696,1.039-5.696,2.374v35.01c0,1.409,1.964,2.374,5.696,2.374
			c3.536,0,5.696-0.964,5.696-2.374V92.888z"/>
		<path fill="#8F9AB0" d="M148.564,135.092V96.745l-1.768,9.494l-8.447,28.854h-10.607l-8.053-28.854l-1.768-9.494v38.348h-11.786
			V85.693h18.661l7.071,24.922l2.357,10.31l2.357-10.31l6.875-24.922h18.071v49.399H148.564z"/>
		<path fill="#8F9AB0" d="M171.743,135.092V85.693h31.625v5.118h-18.071v16.318h12.768v5.118h-12.768v17.727h18.071v5.118H171.743z"
			/>
	</g>
</g>
<g>
	<g>
		<path fill="#A5B18E" d="M274.614,106.469c0,15.924-4.508,29.194-11.173,29.194h-44.495c-6.566,0-11.172-13.27-11.172-29.194
			c0-15.924,4.606-29.194,11.172-29.194h44.495C270.106,77.275,274.614,90.545,274.614,106.469z M218.064,97.917
			c-1.764,0-3.136,3.244-3.136,8.552c0,5.603,1.372,8.552,3.136,8.552h46.259c1.862,0,3.136-2.949,3.136-8.552
			c0-5.308-1.274-8.552-3.136-8.552H218.064z"/>
		<path fill="#A5B18E" d="M215.32,42.774h21.855V22.426h6.665v20.348h29.99v20.348h-65.272V17.413h6.763V42.774z"/>
	</g>
</g>
<g>
	<g>
		<path fill="#C09E69" d="M17.977,156.732v46.896h12.33v14.3h-12.33v64.351H5.647V142.221h27.698v14.511H17.977z"/>
		<path fill="#C09E69" d="M39.417,282.279V181.336h10.186v100.942H39.417z M39.954,169.77v-16.403h9.114v16.403H39.954z"/>
		<path fill="#C09E69" d="M75.69,282.279v-82.646c0-3.575-1.608-6.099-3.752-6.099c-2.145,0-3.753,2.523-3.753,6.099v82.646H57.999
			V181.336h9.65l0.536,7.15c1.608-5.678,5.004-8.412,8.22-8.412c5.54,0,9.292,6.729,9.292,16.403v85.801H75.69z"/>
		<path fill="#C09E69" d="M111.963,282.279l-1.072-6.519c-1.608,5.678-4.646,8.202-8.041,8.202c-5.718,0-9.471-6.729-9.471-16.193
			v-71.291c0-9.674,3.753-16.403,9.471-16.403c3.395,0,6.254,2.523,8.041,7.15v-45.003h10.007v140.058H111.963z M110.891,199.632
			c0-3.575-1.429-6.099-3.574-6.099c-2.323,0-3.752,2.523-3.752,6.099v64.981c0,3.575,1.429,6.099,3.752,6.099
			c2.145,0,3.574-2.523,3.574-6.099V199.632z"/>
		<path fill="#C09E69" d="M149.845,227.392v54.887h-12.33v-54.887l-12.509-85.17h11.973l7.505,61.827l7.505-61.827h11.794
			L149.845,227.392z"/>
		<path fill="#C09E69" d="M181.293,283.961c-7.684,0-13.938-8.833-13.938-22.082v-59.514c0-13.249,6.254-22.292,13.938-22.292
			s13.76,9.042,13.76,22.292v59.514C195.053,275.129,188.977,283.961,181.293,283.961z M185.045,200.053
			c0-3.575-1.429-6.099-3.752-6.099s-3.574,2.524-3.574,6.099v64.351c0,3.365,1.25,5.678,3.574,5.678s3.752-2.313,3.752-5.678
			V200.053z"/>
		<path fill="#C09E69" d="M220.784,282.279l-0.536-6.519c-1.608,5.678-4.646,8.202-8.22,8.202c-5.361,0-9.292-6.729-9.292-16.193
			v-86.432h10.007v83.277c0,3.575,1.787,6.099,3.931,6.099s3.574-2.523,3.574-6.099v-83.277h10.186v100.942H220.784z"/>
		<path fill="#C09E69" d="M248.838,206.993v75.286h-10.186V181.336h9.65l0.714,8.833c1.787-6.309,5.54-10.094,10.365-10.094v16.403
			C251.875,196.478,248.838,199.001,248.838,206.993z"/>
		<path fill="#C09E69" d="M277.426,156.732v46.896h12.33v14.3h-12.33v64.351h-12.33V142.221h27.698v14.511H277.426z"/>
		<path fill="#C09E69" d="M309.053,206.993v75.286h-10.186V181.336h9.65l0.714,8.833c1.787-6.309,5.54-10.094,10.365-10.094v16.403
			C312.09,196.478,309.053,199.001,309.053,206.993z"/>
		<path fill="#C09E69" d="M349.256,283.961c-2.859,0-5.361-2.524-6.969-7.361c-1.43,4.417-4.646,7.361-8.041,7.361
			c-7.327,0-11.258-8.412-11.258-22.082v-8.412c0-15.142,7.684-26.077,16.976-35.33v-17.455c0-4.206-0.715-6.729-3.217-6.729
			c-2.501,0-3.216,2.524-3.216,6.729v11.987h-9.114v-11.356c0-12.618,5.182-21.24,12.866-21.24c7.505,0,12.33,8.412,12.33,21.24
			v67.295c0,2.524,0.357,4.206,1.966,4.626v10.726H349.256z M339.964,233.28c-4.468,4.626-7.148,11.987-7.148,18.085v11.987
			c0,4.206,0.715,7.36,3.395,7.36c2.502,0,3.753-4.206,3.753-8.412V233.28z"/>
		<path fill="#C09E69" d="M371.055,283.961c-7.505,0-13.581-8.833-13.581-22.082v-59.724c0-13.039,6.076-22.081,13.581-22.081
			c8.042,0,12.866,9.042,12.866,22.081v15.772h-8.399v-17.665c0-3.785-1.608-6.309-3.931-6.309c-2.145,0-3.931,2.524-3.931,6.309
			v63.72c0,3.786,1.787,6.099,3.931,6.099c2.323,0,3.931-2.313,3.931-6.099v-17.455h8.399v15.352
			C383.921,275.129,379.097,283.961,371.055,283.961z"/>
		<path fill="#C09E69" d="M409.295,282.279l-5.54-42.06l-2.681,11.777v30.283H390.71V142.221h10.364v88.325l8.22-49.42h9.649
			l-8.22,46.055l8.756,55.098H409.295z"/>
		<path fill="#C09E69" d="M437.706,283.961c-7.505,0-13.76-8.833-13.76-22.082v-59.514c0-13.249,6.254-22.292,13.76-22.292
			c7.684,0,12.866,9.042,12.866,22.292v32.806h-16.44v28.39c0,3.785,1.25,6.729,3.931,6.729c2.859,0,3.574-2.944,3.574-6.729
			v-17.245h8.935v15.562C450.572,275.129,445.39,283.961,437.706,283.961z M441.637,200.894c0-3.996-0.715-6.94-3.574-6.94
			c-2.681,0-3.931,2.944-3.931,6.94v22.922h7.505V200.894z"/>
		<path fill="#C09E69" d="M468.261,206.993v75.286h-10.186V181.336h9.65l0.714,8.833c1.787-6.309,5.54-10.094,10.365-10.094v16.403
			C471.298,196.478,468.261,199.001,468.261,206.993z"/>
		<path fill="#C09E69" d="M483.089,282.279v-21.03h10.007v21.03H483.089z"/>
		<path fill="#C09E69" d="M513.824,283.961c-7.684,0-13.938-8.833-13.938-22.082v-59.514c0-13.249,6.255-22.292,13.938-22.292
			s13.76,9.042,13.76,22.292v59.514C527.584,275.129,521.508,283.961,513.824,283.961z M517.577,200.053
			c0-3.575-1.43-6.099-3.753-6.099s-3.574,2.524-3.574,6.099v64.351c0,3.365,1.251,5.678,3.574,5.678s3.753-2.313,3.753-5.678
			V200.053z"/>
		<path fill="#C09E69" d="M545.631,206.993v75.286h-10.186V181.336h9.649l0.715,8.833c1.787-6.309,5.539-10.094,10.364-10.094
			v16.403C548.668,196.478,545.631,199.001,545.631,206.993z"/>
		<path fill="#C09E69" d="M586.907,188.697c-0.894,0-1.786-0.42-2.68-0.841c2.858,4.417,3.931,9.463,3.931,15.352v23.974
			c0,13.249-6.075,23.343-13.581,23.343c-0.535,0-1.607-0.21-1.786-0.42c-1.966,0-3.396,3.154-3.396,6.94
			c0,3.996,1.608,7.15,5.36,7.15c8.936,0,14.653,6.729,14.653,19.978v14.3c0,15.562-5.896,22.082-14.832,22.082
			c-8.577,0-14.116-7.15-14.116-22.082v-12.617c0-6.099,1.966-10.305,4.646-13.039c-2.68-1.682-5.182-6.94-5.182-11.987
			c0-6.729,3.395-12.618,7.862-13.459c-5.36-2.523-6.79-12.197-6.79-21.03v-23.974c0-13.459,5.896-22.292,13.58-22.292
			c1.608,0,2.859,0.631,3.932,0.631c4.11,0,5.54-3.575,5.54-8.622h7.862c0.357,2.523,0.357,4.416,0.357,6.519
			C592.269,185.542,590.303,188.697,586.907,188.697z M579.938,284.381c0-3.575-1.608-7.36-4.825-7.36
			c-3.216,0-4.467,3.575-4.467,7.36v15.772c0,3.575,1.608,7.15,4.467,7.15c3.038,0,4.825-3.575,4.825-7.15V284.381z M578.33,199.842
			c0-3.364-1.43-5.888-3.753-5.888c-2.322,0-3.752,2.524-3.752,5.888v31.124c0,3.365,1.43,5.889,3.752,5.889
			c2.323,0,3.753-2.524,3.753-5.889V199.842z"/>
	</g>
</g>
</svg>
